# xmcd
#
# Track frame offsets:
# 150
# 4815
# 21943
# 41919
# 64764
# 87834
# 105667
# 122903
# 127408
# 142477
# 164640
# 187491
# 191951
# 209543
# 227253
# 246438
# 254996
# 275558
# 297031
# 314331
#
# Disc length: 4463 seconds
#
#
# Revision: 0
# Processed by: cddbd v1.5.2PL0 Copyright (c) Steve Scherf et al.
# Submitted via: FreeRIP 2.91 
#
DISCID=51116d14
DTITLE=Saian Supa Crew - KLR
DYEAR=1999
DGENRE=Rap
TTITLE0=Intro
TTITLE1=Raz De Marée
TTITLE2=Darkness
TTITLE3=G-Padpo
TTITLE4=Ragots
TTITLE5=Abédédaire Des Cons
TTITLE6=2 Be Or Not
TTITLE7=Le Malade Imaginaire - Intro
TTITLE8=Le Malade Imaginaire
TTITLE9=La Preuve Par
TTITLE10=Soulmwa Pas (feat. Sandy Cossett)
TTITLE11=Ring My Bell
TTITLE12=Pitchy And Scratchee Show
TTITLE13=Angela
TTITLE14=Objectif
TTITLE15=J´adore Ca
TTITLE16=Que Dit-On ?
TTITLE17=Histoire D´un Homme Faible
TTITLE18=La Méthode
TTITLE19=KLR
EXTD=
EXTT0=
EXTT1=
EXTT2=
EXTT3=
EXTT4=
EXTT5=
EXTT6=
EXTT7=
EXTT8=
EXTT9=
EXTT10=
EXTT11=
EXTT12=
EXTT13=
EXTT14=
EXTT15=
EXTT16=
EXTT17=
EXTT18=
EXTT19=
PLAYORDER=
